<?xml version="1.0" encoding="UTF-8" standalone="no"?>
<svg
   xmlns:dc="http://purl.org/dc/elements/1.1/"
   xmlns:cc="http://creativecommons.org/ns#"
   xmlns:rdf="http://www.w3.org/1999/02/22-rdf-syntax-ns#"
   xmlns:svg="http://www.w3.org/2000/svg"
   xmlns="http://www.w3.org/2000/svg"
   xmlns:sodipodi="http://sodipodi.sourceforge.net/DTD/sodipodi-0.dtd"
   xmlns:inkscape="http://www.inkscape.org/namespaces/inkscape"
   id="svg2994"
   viewBox="0 0 199.97261 225.00782"
   version="1.1"
   sodipodi:docname="memo-pictogram-small.svg"
   width="199.97261"
   height="225.00781"
   inkscape:version="0.92.2 (5c3e80d, 2017-08-06)">
  <defs
     id="defs9" />
  <sodipodi:namedview
     pagecolor="#ffffff"
     bordercolor="#666666"
     borderopacity="1"
     objecttolerance="10"
     gridtolerance="10"
     guidetolerance="10"
     inkscape:pageopacity="0"
     inkscape:pageshadow="2"
     inkscape:window-width="1920"
     inkscape:window-height="1017"
     id="namedview7"
     showgrid="false"
     fit-margin-top="0"
     fit-margin-left="0"
     fit-margin-right="0"
     fit-margin-bottom="0"
     inkscape:zoom="3.6875"
     inkscape:cx="97.938649"
     inkscape:cy="113.25964"
     inkscape:window-x="1912"
     inkscape:window-y="-8"
     inkscape:window-maximized="1"
     inkscape:current-layer="layer1"
     inkscape:snap-page="true" />
  <metadata
     id="metadata4">
    <rdf:RDF>
      <cc:Work>
        <dc:format>image/svg+xml</dc:format>
        <dc:type
           rdf:resource="http://purl.org/dc/dcmitype/StillImage" />
        <cc:license
           rdf:resource="http://creativecommons.org/publicdomain/zero/1.0/" />
        <dc:publisher>
          <cc:Agent
             rdf:about="http://openclipart.org/">
            <dc:title>Openclipart</dc:title>
          </cc:Agent>
        </dc:publisher>
        <dc:title></dc:title>
        <dc:date>2013-11-01T00:58:35</dc:date>
        <dc:description>An icon of a memo.</dc:description>
        <dc:source>https://openclipart.org/detail/188189/memo-pictogram-by-libberry-188189</dc:source>
        <dc:creator>
          <cc:Agent>
            <dc:title>libberry</dc:title>
          </cc:Agent>
        </dc:creator>
        <dc:subject>
          <rdf:Bag>
            <rdf:li>learning</rdf:li>
            <rdf:li>memo</rdf:li>
            <rdf:li>note</rdf:li>
            <rdf:li>pencil</rdf:li>
            <rdf:li>report</rdf:li>
            <rdf:li>study</rdf:li>
            <rdf:li>writing</rdf:li>
          </rdf:Bag>
        </dc:subject>
      </cc:Work>
      <cc:License
         rdf:about="http://creativecommons.org/publicdomain/zero/1.0/">
        <cc:permits
           rdf:resource="http://creativecommons.org/ns#Reproduction" />
        <cc:permits
           rdf:resource="http://creativecommons.org/ns#Distribution" />
        <cc:permits
           rdf:resource="http://creativecommons.org/ns#DerivativeWorks" />
      </cc:License>
    </rdf:RDF>
  </metadata>
  <g
     inkscape:groupmode="layer"
     id="layer1"
     inkscape:label="Layer 1"
     style="display:inline"
     transform="translate(2.5136719,2.1308594)">
    <path
       style="color:#000000;font-style:normal;font-variant:normal;font-weight:normal;font-stretch:normal;font-size:medium;line-height:normal;font-family:sans-serif;font-variant-ligatures:normal;font-variant-position:normal;font-variant-caps:normal;font-variant-numeric:normal;font-variant-alternates:normal;font-feature-settings:normal;text-indent:0;text-align:start;text-decoration:none;text-decoration-line:none;text-decoration-style:solid;text-decoration-color:#000000;letter-spacing:normal;word-spacing:normal;text-transform:none;writing-mode:lr-tb;direction:ltr;text-orientation:mixed;dominant-baseline:auto;baseline-shift:baseline;text-anchor:start;white-space:normal;shape-padding:0;clip-rule:nonzero;display:inline;overflow:visible;visibility:visible;opacity:1;isolation:auto;mix-blend-mode:normal;color-interpolation:sRGB;color-interpolation-filters:linearRGB;solid-color:#000000;solid-opacity:1;vector-effect:none;fill:#000000;fill-opacity:1;fill-rule:nonzero;stroke:none;stroke-width:15;stroke-linecap:butt;stroke-linejoin:round;stroke-miterlimit:4;stroke-dasharray:none;stroke-dashoffset:0;stroke-opacity:1;color-rendering:auto;image-rendering:auto;shape-rendering:auto;text-rendering:auto;enable-background:accumulate"
       d="m 21.257812,-2.1308594 c -13.0395073,0 -23.7714839,10.7319761 -23.7714839,23.7714844 V 199.10547 c 0,13.03951 10.7319766,23.77148 23.7714839,23.77148 H 162.22461 c 13.03951,0 23.77148,-10.73197 23.77148,-23.77148 V 82.628906 l -15,15 V 199.10547 c 0,4.98897 -3.78251,8.77148 -8.77148,8.77148 H 21.257812 c -4.988965,0 -8.771484,-3.78251 -8.771484,-8.77148 V 21.640625 c 0,-4.988967 3.782519,-8.771484 8.771484,-8.771484 H 162.22461 c 4.98897,0 8.77148,3.782517 8.77148,8.771484 v 5.207031 l 15,15 V 21.640625 c 0,-13.0395083 -10.73197,-23.7714844 -23.77148,-23.7714844 z"
       id="rect3697"
       inkscape:connector-curvature="0" />
    <path
       style="display:inline;color:#000000;text-indent:0;text-transform:none"
       d="m 166.19867,30.870632 c -0.90762,0 -1.8044,0.33575 -2.4999,1.0312 l -20.999,21 c -1.3909,1.3912 -1.391,3.6089 0,5 l 27.686,27.688 c 1.3909,1.3912 3.64,1.3912 5.031,0 l 20.999,-21 c 1.3909,-1.3911 1.3909,-3.6088 0,-5 l -27.686,-27.688 c -0.69548,-0.6955 -1.6235,-1.0312 -2.5311,-1.0312 z"
       id="path4531"
       inkscape:connector-curvature="0" />
    <path
       style="display:inline;color:#000000;text-indent:0;text-transform:none"
       d="m 134.60667,62.464632 c -0.90762,0 -1.8044,0.33565 -2.4999,1.0312 L 65.391772,130.21483 c -1.3909,1.3912 -1.3909,3.6089 0,5 l 27.686,27.688 c 1.3909,1.3912 3.6401,1.3912 5.031,0 L 164.79277,96.214832 c 1.3909,-1.3911 1.3909,-3.6402 0,-5.0312 l -27.686,-27.688 c -0.69547,-0.6956 -1.5922,-1.0312 -2.4999,-1.0312 z"
       id="path4529"
       inkscape:connector-curvature="0" />
    <path
       style="display:inline;color:#000000;text-indent:0;text-transform:none"
       d="m 57.075672,139.65243 c -0.74952,0.0662 -1.365903,0.70828 -1.4999,1.5625 l -7.3434,22.125 -7.3434,22.062 c -0.136529,0.61905 0.0042,1.27593 0.37498,1.75 0.04996,0.0451 0.102126,0.0868 0.15624,0.125 0.453627,0.31723 1.011534,0.36373 1.4999,0.125 l 22.061,-7.3125 22.093,-7.375 c 1.20407,-0.26875 1.74396,-1.90533 0.99995,-3.0312 l -14.718,-14.719 -14.718,-14.75 c -0.357955,-0.42362 -0.865863,-0.63141 -1.3749,-0.5625 -0.06245,-0.004 -0.125044,-0.004 -0.18749,0 z"
       id="rect2992-9-9"
       inkscape:connector-curvature="0" />
  </g>
</svg>
